<svg width="17" height="16" viewBox="0 0 17 16" fill="none" xmlns="http://www.w3.org/2000/svg">
<g id="majesticons:send">
<path id="Vector" fill-rule="evenodd" clip-rule="evenodd" d="M2.06332 1.49663C2.16284 1.41019 2.28574 1.35518 2.41651 1.33857C2.54727 1.32196 2.68003 1.34448 2.79799 1.4033L14.798 7.4033C14.9089 7.45859 15.0023 7.54371 15.0675 7.64911C15.1327 7.75451 15.1673 7.87601 15.1673 7.99996C15.1673 8.12392 15.1327 8.24542 15.0675 8.35081C15.0023 8.45621 14.9089 8.54134 14.798 8.59663L2.79799 14.5966C2.68003 14.6557 2.54722 14.6784 2.41635 14.6619C2.28549 14.6454 2.16246 14.5905 2.06282 14.504C1.96319 14.4176 1.89143 14.3035 1.85663 14.1763C1.82183 14.0491 1.82555 13.9144 1.86732 13.7893L3.57532 8.66663H7.16666C7.34347 8.66663 7.51304 8.59639 7.63806 8.47137C7.76309 8.34634 7.83332 8.17677 7.83332 7.99996C7.83332 7.82315 7.76309 7.65358 7.63806 7.52856C7.51304 7.40353 7.34347 7.3333 7.16666 7.3333H3.57532L1.86666 2.21063C1.8251 2.08557 1.82154 1.951 1.85642 1.82392C1.89131 1.69684 1.96374 1.58294 2.06332 1.49663Z" fill="#FAFFFF"/>
</g>
</svg>
